/* XPM */
static char * filesave_xpm[] = {
"24 24 289 2",
"  	c None",
". 	c #323265",
"+ 	c #323264",
"@ 	c #313164",
"# 	c #007F7F",
"$ 	c #303061",
"% 	c #A1B8D5",
"& 	c #A5C8E9",
"* 	c #708EAC",
"= 	c #435667",
"- 	c #3B4D5A",
"; 	c #3D4D5C",
"> 	c #3F4F5D",
", 	c #3F505D",
"' 	c #42525F",
") 	c #445461",
"! 	c #485A67",
"~ 	c #637D91",
"{ 	c #87B2D8",
"] 	c #9CCAF1",
"^ 	c #688DB7",
"/ 	c #2E2E5C",
"( 	c #A6C8E8",
"_ 	c #64ACEC",
": 	c #10375A",
"< 	c #939CA5",
"[ 	c #B5B8BD",
"} 	c #B7BABF",
"| 	c #B6BABF",
"1 	c #B5BBBD",
"2 	c #B7BBBE",
"3 	c #B9BDC0",
"4 	c #BABDC1",
"5 	c #BABDC0",
"6 	c #BCC0C3",
"7 	c #BEC2C5",
"8 	c #BFC7CF",
"9 	c #6594C0",
"0 	c #378DDC",
"a 	c #3B526B",
"b 	c #92B5DA",
"c 	c #4094E3",
"d 	c #00264C",
"e 	c #A1A4A8",
"f 	c #BFBEBE",
"g 	c #BABAB9",
"h 	c #BCBBBB",
"i 	c #C0BFBF",
"j 	c #C4C3C3",
"k 	c #C5C4C4",
"l 	c #C0BFBE",
"m 	c #BEBEBD",
"n 	c #C7C8C8",
"o 	c #5F6B78",
"p 	c #2978C4",
"q 	c #364B67",
"r 	c #2B2B57",
"s 	c #94B7DA",
"t 	c #4B99E5",
"u 	c #01274D",
"v 	c #ADB2B7",
"w 	c #C9C9C9",
"x 	c #C5C5C5",
"y 	c #C3C3C3",
"z 	c #D1D1D1",
"A 	c #DDDDDE",
"B 	c #92AFCB",
"C 	c #3988D4",
"D 	c #3B4D6A",
"E 	c #2B2B58",
"F 	c #95B8DB",
"G 	c #4F9EE7",
"H 	c #04294E",
"I 	c #BCC0C6",
"J 	c #D9D9D9",
"K 	c #D2D2D2",
"L 	c #CDCDCD",
"M 	c #CACACA",
"N 	c #CBCBCB",
"O 	c #C8C8C8",
"P 	c #C6C6C6",
"Q 	c #CBCACA",
"R 	c #9DBFE2",
"S 	c #4291DC",
"T 	c #99B9DC",
"U 	c #56A2E9",
"V 	c #082C50",
"W 	c #ACB0B6",
"X 	c #D0D0D0",
"Y 	c #D4D4D4",
"Z 	c #D7D7D7",
"` 	c #DADADA",
" .	c #DEDEDE",
"..	c #E3E2E2",
"+.	c #ECECEB",
"@.	c #ABCDEE",
"#.	c #4A96DE",
"$.	c #9BBADD",
"%.	c #5CA7EB",
"&.	c #C2C8CC",
"*.	c #E4E5E5",
"=.	c #E0E0E0",
"-.	c #DCDCDC",
";.	c #D5D5D5",
">.	c #D3D2D1",
",.	c #A7C6E4",
"'.	c #549BE1",
").	c #3F506B",
"!.	c #9DBCDD",
"~.	c #65ABED",
"{.	c #BBBFC3",
"].	c #DBDBDB",
"^.	c #E0DFDF",
"/.	c #E4E4E3",
"(.	c #E9E9E9",
"_.	c #EEEDEC",
":.	c #F1F1F0",
"<.	c #F2F2F2",
"[.	c #F5F4F3",
"}.	c #F6F6F6",
"|.	c #F9F9F9",
"1.	c #FFFEFD",
"2.	c #C7DEF7",
"3.	c #5DA3E3",
"4.	c #A1BEDF",
"5.	c #6CAFEE",
"6.	c #E2E8EF",
"7.	c #FFFEFE",
"8.	c #FFFFFE",
"9.	c #FEFDFC",
"0.	c #FCFCFC",
"a.	c #FAFBFB",
"b.	c #F7F9FB",
"c.	c #F2F6FA",
"d.	c #ECF3FA",
"e.	c #E5F0FA",
"f.	c #DFEDFC",
"g.	c #DFEEFD",
"h.	c #B6D6F6",
"i.	c #66A9E5",
"j.	c #42526C",
"k.	c #A5BFDF",
"l.	c #71B2ED",
"m.	c #3C80C4",
"n.	c #9DC7F0",
"o.	c #BEDEFD",
"p.	c #C3E1FF",
"q.	c #BADDFF",
"r.	c #B1D7FD",
"s.	c #A4D0F9",
"t.	c #9AC7F3",
"u.	c #8ABBEB",
"v.	c #7CAEE0",
"w.	c #6CA1D3",
"x.	c #5F92C5",
"y.	c #5E95CA",
"z.	c #62A2E1",
"A.	c #69ABE8",
"B.	c #A7C1DF",
"C.	c #78B5ED",
"D.	c #529ADF",
"E.	c #367ABC",
"F.	c #3F77AE",
"G.	c #4071A3",
"H.	c #386999",
"I.	c #32608F",
"J.	c #305C87",
"K.	c #335B83",
"L.	c #3B6084",
"M.	c #4A6B8B",
"N.	c #5B7793",
"O.	c #6E889F",
"P.	c #849EB6",
"Q.	c #72A8DD",
"R.	c #6FAFEB",
"S.	c #47556D",
"T.	c #AAC2E0",
"U.	c #82BCF3",
"V.	c #4379AB",
"W.	c #647E99",
"X.	c #8195A9",
"Y.	c #8D9DAC",
"Z.	c #9CA8B4",
"`.	c #A7AFB6",
" +	c #B9BDC1",
".+	c #CACBCC",
"++	c #D6D6D6",
"@+	c #DEDDDC",
"#+	c #E1DFDE",
"$+	c #DBDBDA",
"%+	c #D1CFCD",
"&+	c #9FC1E3",
"*+	c #7DB7EF",
"=+	c #AEC5E1",
"-+	c #89C2F7",
";+	c #355D84",
">+	c #CBCFD3",
",+	c #8B8A8A",
"'+	c #777776",
")+	c #737373",
"!+	c #CCCCCC",
"~+	c #D2D2D1",
"{+	c #D9D9D8",
"]+	c #DDDDDC",
"^+	c #DAD9D9",
"/+	c #CFCFCE",
"(+	c #ABC9E6",
"_+	c #88BEF3",
":+	c #AFC6E1",
"<+	c #91C7F9",
"[+	c #3B6289",
"}+	c #CED3D7",
"|+	c #626262",
"1+	c #878787",
"2+	c #DDDDDD",
"3+	c #B0CDE9",
"4+	c #91C6F7",
"5+	c #4D5A6F",
"6+	c #2C2C59",
"7+	c #B2C8E2",
"8+	c #99CCFD",
"9+	c #43698E",
"0+	c #C5CCD2",
"a+	c #6E6E6E",
"b+	c #858585",
"c+	c #999999",
"d+	c #B7D2EC",
"e+	c #8CB8DE",
"f+	c #4B5465",
"g+	c #B6CAE3",
"h+	c #9ECFFE",
"i+	c #486C90",
"j+	c #C7CDD3",
"k+	c #868686",
"l+	c #CFD0D0",
"m+	c #BACEE1",
"n+	c #677B8B",
"o+	c #37395F",
"p+	c #1B1B36",
"q+	c #B8CBE3",
"r+	c #A4D4FF",
"s+	c #4A6E90",
"t+	c #C7CCD2",
"u+	c #6F6F6F",
"v+	c #D6D7D5",
"w+	c #B0B8BA",
"x+	c #44496B",
"y+	c #131328",
"z+	c #BBCFE6",
"A+	c #B3E0FF",
"B+	c #5D81A2",
"C+	c #CDD3D8",
"D+	c #686868",
"E+	c #A1A1A0",
"F+	c #CBCBC9",
"G+	c #D1D1CE",
"H+	c #D8D8D4",
"I+	c #DBDBD9",
"J+	c #D1D1D4",
"K+	c #C1C1CA",
"L+	c #ACACBB",
"M+	c #9A9AAF",
"N+	c #7F7F9B",
"O+	c #21213E",
"P+	c #C1D5E7",
"Q+	c #A5C4DA",
"R+	c #5A7384",
"S+	c #D1D6D5",
"T+	c #C8C9C7",
"U+	c #BCBCBF",
"V+	c #B1B1BA",
"W+	c #A1A1B1",
"X+	c #9292A9",
"Y+	c #7F7F9D",
"Z+	c #6B6B8B",
"`+	c #595979",
" @	c #4B4B67",
".@	c #3D3D50",
"+@	c #313163",
"@@	c #8D9EBB",
"#@	c #535B76",
"$@	c #373C5E",
"%@	c #56577C",
"&@	c #616185",
"*@	c #51516F",
"=@	c #2F2F40",
"-@	c #1E1C49",
";@	c #1E1C42",
">@	c #171731",
"                                                ",
"      . + @ @ @ @ @ @ # # @ @ @ @ @ @ @ $       ",
"    . % & * = - ; # > , # ' # ) ! ~ { ] ^ /     ",
"    . ( _ : < [ } | 1 2 3 4 5 6 7 8 9 0 a /     ",
"    @ b c d e f g g h i j k l m f n o p q r     ",
"    @ s t u v w x # y # # # # w z A B C D E     ",
"    @ F G H I J K L M N # # O P P Q R S # E     ",
"    @ T U V W M M L X Y Z J `  ...+.@.#.# E     ",
"    @ $.%.# &.*.=.-.-.-. . .J ;.Y >.,.'.).E     ",
"    @ !.~.# {.].^./.(._.:.<.[.}.|.1.2.3.# E     ",
"    @ 4.5.# 6.7.8.9.0.a.b.c.d.e.f.g.h.i.j.E     ",
"    @ k.l.m.n.o.p.q.r.s.t.u.v.w.x.y.z.A.# E     ",
"    @ B.C.D.E.F.G.H.I.J.K.L.M.N.O.P.Q.R.S.E     ",
"    @ T.U.V.W.X.Y.Z.`. +.+++@+#+$+%+&+*+# E     ",
"    @ =+-+;+>+,+'+)+!+N ~+{+]+ .^+/+(+_+# E     ",
"    @ :+<+[+}+|+# 1+M M X Z ].2+J /+3+4+5+6+    ",
"    @ 7+8+9+0+a+b+c+O M X Z ].2+J /+d+e+f+r     ",
"    @ g+h+i+j+# k+c+O M X Z ].2+J l+m+n+o+p+    ",
"    @ q+r+s+t+u+k+c+O M X Z ]. .]+v+w+x+y+      ",
"    @ z+A+B+C+D+1+E+F+G+H+I+J+K+L+M+N+O+        ",
"    @ P+Q+R+S+T+U+V+W+X+Y+Z+`+ @.@              ",
"    +@@@#@$@%@&@# *@# =@                        ",
"      -@;@>@                                    ",
"                                                "};
