/* XPM */
static char * fileopen_xpm[] = {
"24 24 348 2",
"  	c None",
". 	c #D4AC35",
"+ 	c #D3AA32",
"@ 	c #CEA839",
"# 	c #EDD189",
"$ 	c #FFE4B0",
"% 	c #FDE6B8",
"& 	c #C99605",
"* 	c #B48A15",
"= 	c #BCA152",
"- 	c #C39305",
"; 	c #C69916",
"> 	c #E6C979",
", 	c #FCE3AF",
"' 	c #FDD586",
") 	c #F4C35B",
"! 	c #F3CF86",
"~ 	c #B39C5A",
"{ 	c #C0BDB3",
"] 	c #E2E4EA",
"^ 	c #BB8F09",
"/ 	c #C19413",
"( 	c #DEBC57",
"_ 	c #FAE2B0",
": 	c #FDD88D",
"< 	c #C1BD00",
"[ 	c #DFB252",
"} 	c #BFA260",
"| 	c #BAB4A3",
"1 	c #E5E9F0",
"2 	c #F3F8FF",
"3 	c #EEE5C8",
"4 	c #997403",
"5 	c #CDA52F",
"6 	c #D1AB3D",
"7 	c #D7B44E",
"8 	c #F3D99A",
"9 	c #FEDEA0",
"0 	c #F8CB6C",
"a 	c #C29F58",
"b 	c #B6A98B",
"c 	c #D0D2D3",
"d 	c #F4F8FD",
"e 	c #F4F6F8",
"f 	c #DDC371",
"g 	c #C59915",
"h 	c #E4C778",
"i 	c #F9E1AC",
"j 	c #FADB9C",
"k 	c #E9CC81",
"l 	c #EED390",
"m 	c #FDE2A9",
"n 	c #FCD078",
"o 	c #CFA856",
"p 	c #AC9C79",
"q 	c #D0CDCB",
"r 	c #EBF0F7",
"s 	c #F9FBFD",
"t 	c #F0F2F4",
"u 	c #EFF1F7",
"v 	c #EDF2FA",
"w 	c #C19A30",
"x 	c #A66B00",
"y 	c #AC6C05",
"z 	c #DDBA55",
"A 	c #F6E0AC",
"B 	c #FEDA91",
"C 	c #FDCD6B",
"D 	c #FFD16F",
"E 	c #FFD885",
"F 	c #FED47C",
"G 	c #D3AA51",
"H 	c #B69F6C",
"I 	c #BDBBB5",
"J 	c #ECEEF4",
"K 	c #F5F9FD",
"L 	c #F3F5F7",
"M 	c #EEF0F2",
"N 	c #ECEEF5",
"O 	c #DEE0E0",
"P 	c #C4B384",
"Q 	c #BC892B",
"R 	c #E4C78E",
"S 	c #F1DDAD",
"T 	c #B88017",
"U 	c #CB9E1A",
"V 	c #E1BF63",
"W 	c #FFE5B2",
"X 	c #FECF6E",
"Y 	c #FDCC65",
"Z 	c #FFCF6C",
"` 	c #FACC6A",
" .	c #E1B558",
"..	c #B89C60",
"+.	c #BAB3A0",
"@.	c #DFE2E9",
"#.	c #F8FBFF",
"$.	c #EFF1F3",
"%.	c #EAEDF0",
"&.	c #E2E5EA",
"*.	c #C1BAA3",
"=.	c #958654",
"-.	c #BCA56B",
";.	c #FAECC4",
">.	c #FFF4B3",
",.	c #F3E2A6",
"'.	c #B78026",
").	c #CDA11F",
"!.	c #E7C465",
"~.	c #F3C974",
"{.	c #FCCB61",
"].	c #FDCE6C",
"^.	c #F7C866",
"/.	c #BF9F5A",
"(.	c #B3A990",
"_.	c #D7DADB",
":.	c #F3F7FD",
"<.	c #F6F8FA",
"[.	c #F0F1F3",
"}.	c #EDF0F4",
"|.	c #E7E9ED",
"1.	c #CECBC0",
"2.	c #9A8B56",
"3.	c #9A8A5B",
"4.	c #D8CCA2",
"5.	c #FCEFB1",
"6.	c #F7E186",
"7.	c #E8D47E",
"8.	c #C29B50",
"9.	c #8D6200",
"0.	c #CC9F1D",
"a.	c #E8C361",
"b.	c #F0C774",
"c.	c #F6C863",
"d.	c #D0AC5E",
"e.	c #B09F7A",
"f.	c #CFCFCE",
"g.	c #F0F4FA",
"h.	c #F7FAFD",
"i.	c #F2F4F6",
"j.	c #EEEFF1",
"k.	c #EAEDF5",
"l.	c #D9DAD5",
"m.	c #A89A71",
"n.	c #928046",
"o.	c #BFB080",
"p.	c #FEEEB3",
"q.	c #FCE8A0",
"r.	c #EDD064",
"s.	c #D3B66E",
"t.	c #99660B",
"u.	c #E6C261",
"v.	c #EAC273",
"w.	c #E8BC5D",
"x.	c #CAA34F",
"y.	c #A9A18F",
"z.	c #EAEFF7",
"A.	c #F6F8FB",
"B.	c #F1F4F6",
"C.	c #E9EDF0",
"D.	c #BAB194",
"E.	c #938350",
"F.	c #AE9F75",
"G.	c #F0E4B1",
"H.	c #FFED95",
"I.	c #EFD269",
"J.	c #DEC980",
"K.	c #A17527",
"L.	c #CA9E1D",
"M.	c #E2BE5E",
"N.	c #DEB96E",
"O.	c #D0A852",
"P.	c #896E36",
"Q.	c #C8C8C4",
"R.	c #FAFDFF",
"S.	c #EDEFF4",
"T.	c #E5E8ED",
"U.	c #C9C5B4",
"V.	c #988959",
"W.	c #9E8E61",
"X.	c #DACC9C",
"Y.	c #FEF3AF",
"Z.	c #F5DB76",
"`.	c #DFC257",
" +	c #D4B84F",
".+	c #DBC777",
"++	c #CB9D4A",
"@+	c #6E4A00",
"#+	c #C69A1B",
"$+	c #CEAB67",
"%+	c #AB883F",
"&+	c #7E6F4E",
"*+	c #D5D8DA",
"=+	c #F3F6FA",
"-+	c #EAEEF6",
";+	c #D5D2C9",
">+	c #A59A73",
",+	c #948452",
"'+	c #C8BE9B",
")+	c #FEF1BD",
"!+	c #FFEC9A",
"~+	c #E5C759",
"{+	c #DABD54",
"]+	c #D3B74F",
"^+	c #D8C266",
"/+	c #CDB068",
"(+	c #754F09",
"_+	c #C1971A",
":+	c #D4B256",
"<+	c #BD9E60",
"[+	c #816428",
"}+	c #827B6B",
"|+	c #E3E7EE",
"1+	c #E4E5E5",
"2+	c #B4AB8B",
"3+	c #958350",
"4+	c #B3A26E",
"5+	c #EFE9C2",
"6+	c #FFF1A7",
"7+	c #F0D368",
"8+	c #DFC259",
"9+	c #D5B952",
"0+	c #C6AA40",
"a+	c #CCB351",
"b+	c #D9C37E",
"c+	c #B17E1F",
"d+	c #BC9119",
"e+	c #AC9058",
"f+	c #624D20",
"g+	c #8F8E8A",
"h+	c #E4E6E8",
"i+	c #988A5E",
"j+	c #9F8F5F",
"k+	c #E4DAB4",
"l+	c #FFF7BE",
"m+	c #F6DC77",
"n+	c #E7CA5D",
"o+	c #DBBF57",
"p+	c #CCB046",
"q+	c #CBB55D",
"r+	c #D6C078",
"s+	c #B98835",
"t+	c #724D00",
"u+	c #B58C17",
"v+	c #C1A14C",
"w+	c #987E4C",
"x+	c #655431",
"y+	c #A6A9AF",
"z+	c #A19B84",
"A+	c #766734",
"B+	c #E6D69A",
"C+	c #FFE689",
"D+	c #E3C75D",
"E+	c #D9BD52",
"F+	c #DABE56",
"G+	c #D6BA51",
"H+	c #C6A940",
"I+	c #C9B356",
"J+	c #D9C277",
"K+	c #D1AD5F",
"L+	c #8F6212",
"M+	c #382400",
"N+	c #AC8616",
"O+	c #856E41",
"P+	c #5F543F",
"Q+	c #A2A19D",
"R+	c #6D6442",
"S+	c #B1A466",
"T+	c #CDB148",
"U+	c #DCBF55",
"V+	c #D7BB52",
"W+	c #D0B44B",
"X+	c #D0B653",
"Y+	c #D2BF6F",
"Z+	c #CFAE65",
"`+	c #AE812A",
" @	c #523200",
".@	c #A47E14",
"+@	c #AB8E42",
"@@	c #78653F",
"#@	c #5A5445",
"$@	c #706747",
"%@	c #938855",
"&@	c #C5AC4C",
"*@	c #DCBF56",
"=@	c #DCC058",
"-@	c #C7AC46",
";@	c #CFBA63",
">@	c #D3BB73",
",@	c #BA8F3D",
"'@	c #795106",
")@	c #100A00",
"!@	c #9C7813",
"~@	c #A2863D",
"{@	c #756443",
"]@	c #4D4636",
"^@	c #81774E",
"/@	c #BBA756",
"(@	c #D1B44A",
"_@	c #D9BC52",
":@	c #D6B951",
"<@	c #D1BC61",
"[@	c #D2BD72",
"}@	c #CBA454",
"|@	c #905F0D",
"1@	c #251800",
"2@	c #997713",
"3@	c #A0853E",
"4@	c #745D37",
"5@	c #695730",
"6@	c #AFA05E",
"7@	c #C4A83F",
"8@	c #D7BB50",
"9@	c #CDB452",
"0@	c #D9C67A",
"a@	c #CFAD61",
"b@	c #B28025",
"c@	c #462B00",
"d@	c #A07D16",
"e@	c #AA8F42",
"f@	c #856536",
"g@	c #A18E54",
"h@	c #AD9433",
"i@	c #D0B650",
"j@	c #D3BD6A",
"k@	c #D4BB73",
"l@	c #BA8A35",
"m@	c #684303",
"n@	c #0D0700",
"o@	c #8F6902",
"p@	c #9B7316",
"q@	c #AE9967",
"r@	c #A6933F",
"s@	c #BCA64C",
"t@	c #D8C077",
"u@	c #C9A14D",
"v@	c #84580A",
"w@	c #2C1E00",
"x@	c #513100",
"y@	c #B99E63",
"z@	c #C6BB7E",
"A@	c #D4AF61",
"B@	c #A4751E",
"C@	c #372300",
"D@	c #9E710C",
"E@	c #B37E2A",
"F@	c #583B08",
"G@	c #0B0600",
"                                . +             ",
"                            @ # $ % & * = -     ",
"                        ; > , ' ) ! ~ { ] ^     ",
"                    / ( _ : < [ } | 1 2 3 4     ",
"          5 6     7 8 9 0 < a b c d e 2 f       ",
"      g h i j k l m n < o p q r s t u v w x y   ",
"    z A B C D E F < G H I J K L M N O P Q R S T ",
"U V W X Y Z ` <  ...+.@.#.L $.%.&.*.=.-.;.>.,.'.",
").!.~.{.].^.< /.(._.:.<.[.}.|.1.2.3.4.5.6.7.8.9.",
"0.a.b.c.< d.e.f.g.h.i.j.k.l.m.n.o.p.q.r.< s.t.  ",
"0.u.v.w.x.y.z.A.B.$.C.&.D.E.F.G.H.I.< < J.K.    ",
"L.M.N.O.P.Q.R.t S.T.U.V.W.X.Y.Z.`.<  +.+++@+    ",
"#+< $+%+&+*+=+-+;+>+,+'+)+!+~+{+]+< ^+/+(+      ",
"_+:+<+[+}+|+1+2+3+4+5+6+7+8+9+< 0+a+b+c+        ",
"d+< e+f+g+h+i+j+k+l+m+n+o+< p+< q+r+s+t+        ",
"u+v+w+x+y+z+A+B+C+D+E+F+G+H+I+J+K+L+M+          ",
"N+< O+P+Q+R+S+T+U+V+W+< X+Y+Z+`+ @              ",
".@+@@@#@$@%@&@*@=@< -@;@>@,@'@)@                ",
"!@~@{@]@^@/@(@_@:@<@[@}@|@1@                    ",
"2@3@4@5@6@7@8@9@0@a@b@c@                        ",
"d@e@f@g@h@i@j@k@l@m@n@                          ",
"o@p@q@r@s@t@u@v@w@                              ",
"  x@y@z@A@B@C@                                  ",
"    D@E@F@G@                                    "};
