/* XPM */
static char * next_xpm[] = {
"24 24 184 2",
"  	c None",
". 	c #000000",
"+ 	c #000000",
"@ 	c #000000",
"# 	c #000000",
"$ 	c #000000",
"% 	c #000000",
"& 	c #956200",
"* 	c #825500",
"= 	c #000000",
"- 	c #000000",
"; 	c #956400",
"> 	c #000000",
", 	c #000000",
"' 	c #000000",
") 	c #000000",
"! 	c #000000",
"~ 	c #986400",
"{ 	c #000000",
"] 	c #000000",
"^ 	c #8B5C00",
"/ 	c #8C5D00",
"( 	c #906400",
"_ 	c #9D6F19",
": 	c #99752E",
"< 	c #966400",
"[ 	c #513600",
"} 	c #F0CB8B",
"| 	c #E7C895",
"1 	c #3D2900",
"2 	c #804000",
"3 	c #966400",
"4 	c #533900",
"5 	c #000000",
"6 	c #3D2800",
"7 	c #F7C46D",
"8 	c #835600",
"9 	c #5B3700",
"0 	c #191300",
"a 	c #3B2700",
"b 	c #99762E",
"c 	c #95722E",
"d 	c #F7BC52",
"e 	c #F7CD8B",
"f 	c #F0CE88",
"g 	c #FADFB6",
"h 	c #956200",
"i 	c #875A00",
"j 	c #98680B",
"k 	c #8B5B00",
"l 	c #FBCF72",
"m 	c #FCC758",
"n 	c #99762F",
"o 	c #F0D289",
"p 	c #F0D7A8",
"q 	c #956200",
"r 	c #FBD484",
"s 	c #F1D79B",
"t 	c #966400",
"u 	c #EED695",
"v 	c #956400",
"w 	c #986400",
"x 	c #EECB87",
"y 	c #F1D589",
"z 	c #976808",
"A 	c #946609",
"B 	c #E9D399",
"C 	c #966300",
"D 	c #F1D88A",
"E 	c #000000",
"F 	c #9E7B35",
"G 	c #FAE8A1",
"H 	c #906000",
"I 	c #895A00",
"J 	c #F1DFA0",
"K 	c #F2D5A8",
"L 	c #F7E58D",
"M 	c #8C5D00",
"N 	c #7F5400",
"O 	c #805400",
"P 	c #EEE0AC",
"Q 	c #FBEA8F",
"R 	c #FBE780",
"S 	c #FCE468",
"T 	c #FAEC8F",
"U 	c #7A4F00",
"V 	c #000000",
"W 	c #573900",
"X 	c #8E6209",
"Y 	c #8F630B",
"Z 	c #8F6209",
"` 	c #875A00",
" .	c #9E7C3A",
"..	c #F7E46B",
"+.	c #FAEE8E",
"@.	c #7B5200",
"#.	c #000000",
"$.	c #0D0600",
"%.	c #100900",
"&.	c #0C0900",
"*.	c #352300",
"=.	c #A07D37",
"-.	c #F7EC8F",
";.	c #F7EE8E",
">.	c #8B5B00",
",.	c #7A5100",
"'.	c #000000",
").	c #835600",
"!.	c #000000",
"~.	c #000000",
"{.	c #3B2800",
"].	c #A27E37",
"^.	c #F9F4C0",
"/.	c #FDF8B7",
"(.	c #794F00",
"_.	c #000000",
":.	c #422C00",
"<.	c #A5823F",
"[.	c #F2ECAA",
"}.	c #7E5200",
"|.	c #000000",
"1.	c #322100",
"2.	c #A0792D",
"3.	c #875A00",
"4.	c #734C00",
"5.	c #000000",
"6.	c #392500",
"7.	c #000000",
"8.	c #000000",
"9.	c #000000",
"0.	c #FFC700",
"a.	c #FFC41C",
"b.	c #FFCF00",
"c.	c #FFE34B",
"d.	c #FFCD21",
"e.	c #FFBA22",
"f.	c #FFE3A8",
"g.	c #FFC701",
"h.	c #FFCA0D",
"i.	c #FFC41B",
"j.	c #FFE94A",
"k.	c #FFC555",
"l.	c #FFD04A",
"m.	c #FFEC34",
"n.	c #FFEE4C",
"o.	c #FFD43A",
"p.	c #FFE68E",
"q.	c #FFBA09",
"r.	c #FFC01F",
"s.	c #FFCE53",
"t.	c #FFD74E",
"u.	c #FFCE25",
"v.	c #FFC520",
"w.	c #FFCD20",
"x.	c #FFF66D",
"y.	c #FFD367",
"z.	c #FFD105",
"A.	c #FFD41B",
"B.	c #FFDD4C",
"C.	c #FFDF53",
"D.	c #FFC740",
"E.	c #FFC538",
"F.	c #FFC22F",
"G.	c #FFBE22",
"H.	c #FFE471",
"I.	c #FFC953",
"J.	c #FFDB45",
"K.	c #FFC004",
"L.	c #FFDA3C",
"M.	c #FFD730",
"N.	c #FFD904",
"O.	c #FFD906",
"P.	c #FFDC1A",
"Q.	c #FFCE79",
"R.	c #FFBF01",
"S.	c #FFC107",
"T.	c #FFC71F",
"U.	c #FFD559",
"V.	c #FFE31B",
"W.	c #FFF3B1",
"X.	c #FFBF37",
"Y.	c #FFBB0E",
"Z.	c #FFBF42",
"`.	c #FFE213",
"                                                ",
"                                                ",
"                                                ",
"                    _ t                         ",
"                    F | <                       ",
"                    n g K q                     ",
"                    : e Q.} &                   ",
"                    b 7 Z.k.x &                 ",
"            z j A k c d e.e.I.f &               ",
"          i p f.r l m X.Y.q.r.s.o &             ",
"          ).s y.( ( ( ( ( ( S.T.U.u v           ",
"          * y l.v.( ( ( 0.0.g.h.o.p.B C         ",
"          * D t.u.d.( w.b.b.z.A.C.G H           ",
"          * J H.B.J.L.M.N.O.P.c.L M N           ",
"          O P W.Q R S c.`.V.j.T ^ U             ",
"          W X Y Z `  ...m.n.+.^ @.              ",
"                    =.-.x.;.>.,.                ",
"                    ].^././ (.                  ",
"                    <.[./ }.                    ",
"                    2.3.                        ",
"                                                ",
"                                                ",
"                                                ",
"                                                "};
