/* XPM */
static char * prev_xpm[] = {
"24 24 113 2",
"  	c None",
". 	c #976400",
"+ 	c #9D701A",
"@ 	c #966400",
"# 	c #E8C896",
"$ 	c #9F7B36",
"% 	c #966300",
"& 	c #F2D6A8",
"* 	c #FADFB7",
"= 	c #99762F",
"- 	c #F0CC8C",
"; 	c #FFCE79",
"> 	c #F7CD8C",
", 	c #99752F",
"' 	c #EFCC88",
") 	c #FFC555",
"! 	c #FFBF42",
"~ 	c #F7C46D",
"{ 	c #F0CF89",
"] 	c #FFC953",
"^ 	c #FFBA22",
"/ 	c #F7BD52",
"( 	c #95722E",
"_ 	c #8C5C00",
": 	c #95660A",
"< 	c #99680B",
"[ 	c #986809",
"} 	c #F0D28A",
"| 	c #FFCE53",
"1 	c #FFC01F",
"2 	c #FFBA09",
"3 	c #FFBB0E",
"4 	c #FFBF37",
"5 	c #FCC759",
"6 	c #FBCF73",
"7 	c #FBD484",
"8 	c #FFE3A8",
"9 	c #F0D8A8",
"0 	c #885A00",
"a 	c #EFD695",
"b 	c #FFD559",
"c 	c #FFC71F",
"d 	c #827F00",
"e 	c #FFD367",
"f 	c #F1D79B",
"g 	c #845700",
"h 	c #EAD499",
"i 	c #FFE68E",
"j 	c #FFD43A",
"k 	c #FFCA0D",
"l 	c #FFC701",
"m 	c #FFC700",
"n 	c #FFC520",
"o 	c #FFD04A",
"p 	c #F1D589",
"q 	c #825600",
"r 	c #916000",
"s 	c #FAE8A2",
"t 	c #FFDF53",
"u 	c #FFD41B",
"v 	c #FFD105",
"w 	c #FFCF00",
"x 	c #FFCD21",
"y 	c #FFCE25",
"z 	c #FFD74E",
"A 	c #F1D88A",
"B 	c #805500",
"C 	c #8C5D00",
"D 	c #F7E58E",
"E 	c #FFE34B",
"F 	c #FFDC1A",
"G 	c #FFD906",
"H 	c #FFD904",
"I 	c #FFD730",
"J 	c #FFDA3C",
"K 	c #FFDB45",
"L 	c #FFDD4C",
"M 	c #FFE471",
"N 	c #F1DFA0",
"O 	c #7B5100",
"P 	c #FAEC90",
"Q 	c #FFE94A",
"R 	c #FFE31B",
"S 	c #FFE213",
"T 	c #FCE469",
"U 	c #FBE780",
"V 	c #FBEA8F",
"W 	c #FFF3B1",
"X 	c #EEE0AC",
"Y 	c #7C5200",
"Z 	c #FAEE8F",
"` 	c #FFEE4C",
" .	c #FFEC34",
"..	c #F7E46B",
"+.	c #9F7D3A",
"@.	c #8F620A",
"#.	c #8F630C",
"$.	c #8E6209",
"%.	c #583A00",
"&.	c #7B5200",
"*.	c #F7EE8F",
"=.	c #FFF66D",
"-.	c #F7EC90",
";.	c #A17E38",
">.	c #795000",
",.	c #8D5E00",
"'.	c #FDF8B7",
").	c #F9F4C0",
"!.	c #A27F38",
"~.	c #7E5300",
"{.	c #F2ECAA",
"].	c #A68340",
"^.	c #A0792D",
"                                                ",
"                                                ",
"                                                ",
"                        . +                     ",
"                      @ # $                     ",
"                    % & * =                     ",
"                  % - ; > ,                     ",
"                % ' ) ! ~ =                     ",
"              % { ] ^ ^ / ( _ : < [             ",
"            % } | 1 2 3 4 5 6 7 8 9 0           ",
"          @ a b c d d d d d d d e f g           ",
"        . h i j k l m d d d d n o p q           ",
"          r s t u v w w d d x y z A q           ",
"          B C D E F G H I J K L M N q           ",
"            O C P Q R S E T U V W X B           ",
"              Y C Z `  ...+.0 @.#.$.%.          ",
"                &._ *.=.-.;.                    ",
"                  >.,.'.).!.                    ",
"                    ~.,.{.].                    ",
"                        0 ^.                    ",
"                                                ",
"                                                ",
"                                                ",
"                                                "};
